Coordinates
version=1
nRows=13
nColumns=40
inDegrees=yes

Units are S.I. units (second, meters, Newtons, ...)
Angles are in degrees.

endheader
time	pelvis_tilt	pelvis_list	pelvis_rotation	pelvis_tx	pelvis_ty	pelvis_tz	hip_flexion_r	hip_adduction_r	hip_rotation_r	knee_angle_r	knee_angle_r_beta	ankle_angle_r	subtalar_angle_r	mtp_angle_r	hip_flexion_l	hip_adduction_l	hip_rotation_l	knee_angle_l	knee_angle_l_beta	ankle_angle_l	subtalar_angle_l	mtp_angle_l	lumbar_extension	lumbar_bending	lumbar_rotation	arm_flex_r	arm_add_r	arm_rot_r	elbow_flex_r	pro_sup_r	wrist_flex_r	wrist_dev_r	arm_flex_l	arm_add_l	arm_rot_l	elbow_flex_l	pro_sup_l	wrist_flex_l	wrist_dev_l
     27.36000000	     -1.96535975	     -6.28520936	      3.75012167	      1.10718453	      0.93456139	      0.49788297	      7.72038001	      5.57706634	    -19.14567547	     11.65828879	     11.65828879	      9.12976839	      5.80130579	     -7.07382920	     31.07808245	    -15.25552213	     -2.66605282	     58.82393800	     58.82393800	     12.11980793	    -18.55067165	     13.91017716	     -9.93611543	      8.36330290	      5.03719030	     20.00337071	    -15.26224804	    -11.02792708	     32.46553596	     46.14883389	      0.00000000	      0.00000000	     10.13075145	     -6.37164638	     -1.00862698	     32.17642642	     45.63907790	      0.00000000	      0.00000000
     27.37114286	     -1.98069962	     -6.32620859	      3.89395658	      1.10600034	      0.93432444	      0.49843160	      6.91803569	      5.84391584	    -18.95473444	     11.13265257	     11.13265257	      9.39565722	      5.56351079	     -7.12536893	     32.34704723	    -15.19434424	     -2.62565657	     56.26506984	     56.26506984	     11.89185818	    -18.68250672	     14.18714622	     -9.96357697	      8.28342419	      4.86708594	     22.42478805	    -15.17996799	    -11.06584841	     34.05658269	     46.10395256	      0.00000000	      0.00000000	      8.20933028	     -6.55500672	     -0.99719234	     30.72879797	     45.61602613	      0.00000000	      0.00000000
     27.38228571	     -2.02719230	     -6.42785135	      4.01645807	      1.10477909	      0.93392081	      0.49896535	      6.15890744	      6.16737433	    -18.77050948	     10.59201156	     10.59201156	      9.58596156	      5.41155716	     -7.21610378	     33.41698721	    -15.12196596	     -2.56248097	     53.36718309	     53.36718309	     11.58959723	    -18.73763174	     14.45778299	    -10.07127091	      8.25243793	      4.78387807	     24.72212552	    -15.25260104	    -10.90963635	     35.77268501	     46.04105179	      0.00000000	      0.00000000	      6.49923833	     -6.59737904	     -0.97750273	     29.02622077	     45.59979083	      0.00000000	      0.00000000
     27.39342857	     -2.07812939	     -6.44090599	      4.11664471	      1.10364274	      0.93351296	      0.49940300	      5.42165511	      6.37103756	    -18.61559732	     10.10621099	     10.10621099	      9.83940573	      5.33894345	     -7.29294454	     34.21674248	    -14.88932383	     -2.55895046	     50.14453931	     50.14453931	     11.13938815	    -18.74732689	     14.92801684	    -10.13272363	      8.11529400	      4.92025972	     26.87612493	    -15.40593984	    -10.72930602	     37.34369736	     45.98261577	      0.00000000	      0.00000000	      4.89431734	     -6.62944173	     -0.95092167	     27.54710935	     45.58059478	      0.00000000	      0.00000000
     27.40457143	     -2.10666125	     -6.52273334	      4.23540828	      1.10257868	      0.93303103	      0.49973943	      4.63327744	      6.65037136	    -18.50167447	      9.55393669	      9.55393669	     10.05096269	      5.32654967	     -7.36425169	     34.83821437	    -14.63529912	     -2.44673766	     46.73723750	     46.73723750	     10.60588324	    -18.65718126	     15.38788364	    -10.21145906	      8.08113677	      4.85065389	     29.01163940	    -15.44710495	    -10.42077619	     39.17750533	     45.90683150	      0.00000000	      0.00000000	      3.29468056	     -6.70961523	     -0.92089763	     25.86881778	     45.56404635	      0.00000000	      0.00000000
     27.41571429	     -2.18115602	     -6.60568897	      4.33696185	      1.10155327	      0.93240758	      0.49994761	      3.91033276	      6.90483445	    -18.41613800	      9.03499802	      9.03499802	     10.27790971	      5.38756879	     -7.44696254	     35.36374503	    -14.29852724	     -2.25491784	     43.20869148	     43.20869148	      9.99060445	    -18.44000781	     15.76444010	    -10.23840551	      8.05209421	      4.87869206	     31.00205465	    -15.58431794	    -10.06583121	     41.04064672	     45.82796238	      0.00000000	      0.00000000	      1.75732825	     -6.75989863	     -0.90715458	     24.35831477	     45.55111723	      0.00000000	      0.00000000
     27.42685714	     -2.27347180	     -6.68603405	      4.43381670	      1.10061670	      0.93169638	      0.50001911	      3.19423868	      7.13993674	    -18.36772048	      8.50492207	      8.50492207	     10.51484426	      5.54657075	     -7.52840573	     35.77260874	    -13.90713981	     -2.01124885	     39.60022954	     39.60022954	      9.35484897	    -17.94930602	     15.94012385	    -10.25107860	      8.03008495	      4.85147331	     32.88327807	    -15.67875112	     -9.64167359	     43.10332362	     45.73861368	      0.00000000	      0.00000000	      0.20174448	     -6.83201769	     -0.90919591	     22.95698438	     45.54136324	      0.00000000	      0.00000000
     27.43800000	     -2.39339939	     -6.87394091	      4.53234259	      1.09979583	      0.93074612	      0.49996165	      2.49029863	      7.46491843	    -18.49719624	      7.94332961	      7.94332961	     10.71079807	      5.99332892	     -7.74739499	     36.07864094	    -13.61183578	     -1.74529533	     35.85220684	     35.85220684	      7.83550769	    -17.28058246	     13.40870485	    -10.27444690	      8.15464449	      5.37208477	     33.30510671	    -16.94988984	     -7.26211533	     48.28510128	     45.43898617	      0.00000000	      0.00000000	     -0.77148365	     -6.70622105	     -1.18825104	     20.94325477	     45.66694082	      0.00000000	      0.00000000
     27.44914286	     -2.54840843	     -6.91762939	      4.59034008	      1.09901379	      0.92985755	      0.49980557	      1.87262134	      7.61769864	    -18.43358257	      7.52079117	      7.52079117	     11.02942326	      6.17554671	     -7.76942118	     36.35138906	    -13.18470349	     -1.56182135	     32.31834961	     32.31834961	      7.50695795	    -15.85001598	     13.70588840	    -10.20806816	      8.07965174	      5.31152294	     35.24690053	    -16.91812995	     -7.29633156	     49.87060089	     45.39568079	      0.00000000	      0.00000000	     -2.47155014	     -6.82986730	     -1.23475138	     20.23015597	     45.65269901	      0.00000000	      0.00000000
     27.46028571	     -2.69914789	     -7.08519849	      4.69660401	      1.09843853	      0.92880575	      0.49948521	      1.15448489	      7.91164082	    -18.58837606	      6.92293866	      6.92293866	     11.35607728	      6.73281762	     -7.63799869	     36.62891443	    -12.89870416	     -1.38895258	     28.98605345	     28.98605345	      7.05429253	    -13.92058404	     12.99694591	    -10.12420355	      8.20155116	      4.99158777	     36.79705953	    -16.78774740	     -7.06404303	     52.89847642	     45.29175000	      0.00000000	      0.00000000	     -4.39266233	     -6.90772578	     -1.34621767	     19.97425583	     45.65526233	      0.00000000	      0.00000000
     27.47142857	     -2.89266619	     -7.11797764	      4.73558157	      1.09792271	      0.92771452	      0.49910759	      0.59775140	      8.01155227	    -18.55968766	      6.59527728	      6.59527728	     11.73247799	      6.96396300	     -7.63033187	     36.79581933	    -12.51777037	     -1.39200485	     25.78408690	     25.78408690	      6.94593183	    -11.69736192	     12.98700936	    -10.00646018	      8.11213292	      4.98198908	     38.41913972	    -16.79396260	     -7.04366536	     54.82262344	     45.23413205	      0.00000000	      0.00000000	     -6.08422354	     -7.00538135	     -1.38457196	     19.54383147	     45.63456217	      0.00000000	      0.00000000
     27.48257143	     -3.11102741	     -7.18652675	      4.79297829	      1.09758116	      0.92654719	      0.49852497	      0.04270856	      8.13659947	    -18.53537266	      6.23993543	      6.23993543	     12.09636335	      7.25303050	     -7.59636463	     36.96787930	    -12.18109809	     -1.47275919	     22.89069861	     22.89069861	      6.88329959	     -9.37576036	     13.01731340	     -9.78318685	      8.10217310	      4.82658649	     39.92676133	    -16.64266257	     -7.00644592	     56.91612106	     45.16892119	      0.00000000	      0.00000000	     -7.76022705	     -7.03462006	     -1.41524882	     19.19949780	     45.60814691	      0.00000000	      0.00000000
     27.49371429	     -3.17744639	     -7.30249794	      4.84203351	      1.09754127	      0.92539823	      0.49792893	     -0.71724254	      8.32379893	    -18.68354899	      5.86912848	      5.86912848	     12.68581264	      7.88746251	     -6.93899040	     37.08210837	    -12.02931418	     -1.97206158	     20.62946309	     20.62946309	      6.77078759	     -6.76177190	     12.12791764	     -9.87489636	      8.15519614	      4.98909339	     40.31232486	    -17.06067491	     -6.67960307	     62.31300185	     44.99319592	      0.00000000	      0.00000000	     -9.87649615	     -7.20530260	     -1.37560875	     20.28568358	     45.55579678	      0.00000000	      0.00000000
